<mxfile host="app.diagrams.net" agent="Mozilla/5.0 (Windows NT 10.0; Win64; x64) AppleWebKit/537.36 (KHTML, like Gecko) Chrome/128.0.0.0 Safari/537.36" version="24.7.10">
  <diagram name="Side-1" id="SCDQHTMRtYDPNLYkssld">
    <mxGraphModel dx="1034" dy="412" grid="1" gridSize="10" guides="1" tooltips="1" connect="1" arrows="1" fold="1" page="1" pageScale="1" pageWidth="827" pageHeight="1169" math="0" shadow="0">
      <root>
        <mxCell id="0" />
        <mxCell id="1" parent="0" />
        <mxCell id="H_3hlT7ZZL6J6j2Pgvtv-17" style="edgeStyle=orthogonalEdgeStyle;rounded=0;orthogonalLoop=1;jettySize=auto;html=1;exitX=0.5;exitY=0.5;exitDx=0;exitDy=0;exitPerimeter=0;entryX=0;entryY=0.5;entryDx=0;entryDy=0;" edge="1" parent="1" source="H_3hlT7ZZL6J6j2Pgvtv-1" target="H_3hlT7ZZL6J6j2Pgvtv-15">
          <mxGeometry relative="1" as="geometry" />
        </mxCell>
        <mxCell id="H_3hlT7ZZL6J6j2Pgvtv-1" value="Compliance team&lt;span style=&quot;color: rgba(0, 0, 0, 0); font-family: monospace; font-size: 0px; text-align: start;&quot;&gt;%3CmxGraphModel%3E%3Croot%3E%3CmxCell%20id%3D%220%22%2F%3E%3CmxCell%20id%3D%221%22%20parent%3D%220%22%2F%3E%3CmxCell%20id%3D%222%22%20value%3D%22Warehouse%20staff%22%20style%3D%22shape%3DumlActor%3BverticalLabelPosition%3Dbottom%3BverticalAlign%3Dtop%3Bhtml%3D1%3B%22%20vertex%3D%221%22%20parent%3D%221%22%3E%3CmxGeometry%20x%3D%2280%22%20y%3D%2260%22%20width%3D%2230%22%20height%3D%2260%22%20as%3D%22geometry%22%2F%3E%3C%2FmxCell%3E%3C%2Froot%3E%3C%2FmxGraphModel%3E&lt;/span&gt;" style="shape=umlActor;verticalLabelPosition=bottom;verticalAlign=top;html=1;" vertex="1" parent="1">
          <mxGeometry x="40" y="160" width="30" height="60" as="geometry" />
        </mxCell>
        <mxCell id="H_3hlT7ZZL6J6j2Pgvtv-10" style="edgeStyle=orthogonalEdgeStyle;rounded=0;orthogonalLoop=1;jettySize=auto;html=1;exitX=0.5;exitY=0.5;exitDx=0;exitDy=0;exitPerimeter=0;entryX=0;entryY=0.5;entryDx=0;entryDy=0;" edge="1" parent="1" source="H_3hlT7ZZL6J6j2Pgvtv-2" target="H_3hlT7ZZL6J6j2Pgvtv-6">
          <mxGeometry relative="1" as="geometry" />
        </mxCell>
        <mxCell id="H_3hlT7ZZL6J6j2Pgvtv-11" style="edgeStyle=orthogonalEdgeStyle;rounded=0;orthogonalLoop=1;jettySize=auto;html=1;exitX=0.5;exitY=0.5;exitDx=0;exitDy=0;exitPerimeter=0;entryX=0;entryY=0.5;entryDx=0;entryDy=0;" edge="1" parent="1" source="H_3hlT7ZZL6J6j2Pgvtv-2" target="H_3hlT7ZZL6J6j2Pgvtv-7">
          <mxGeometry relative="1" as="geometry" />
        </mxCell>
        <mxCell id="H_3hlT7ZZL6J6j2Pgvtv-12" style="edgeStyle=orthogonalEdgeStyle;rounded=0;orthogonalLoop=1;jettySize=auto;html=1;exitX=0.5;exitY=0.5;exitDx=0;exitDy=0;exitPerimeter=0;entryX=0;entryY=0.5;entryDx=0;entryDy=0;" edge="1" parent="1" source="H_3hlT7ZZL6J6j2Pgvtv-2" target="H_3hlT7ZZL6J6j2Pgvtv-9">
          <mxGeometry relative="1" as="geometry" />
        </mxCell>
        <mxCell id="H_3hlT7ZZL6J6j2Pgvtv-13" style="edgeStyle=orthogonalEdgeStyle;rounded=0;orthogonalLoop=1;jettySize=auto;html=1;exitX=0.5;exitY=0.5;exitDx=0;exitDy=0;exitPerimeter=0;entryX=0;entryY=0.5;entryDx=0;entryDy=0;" edge="1" parent="1" source="H_3hlT7ZZL6J6j2Pgvtv-2" target="H_3hlT7ZZL6J6j2Pgvtv-8">
          <mxGeometry relative="1" as="geometry" />
        </mxCell>
        <mxCell id="H_3hlT7ZZL6J6j2Pgvtv-2" value="Warehouse staff" style="shape=umlActor;verticalLabelPosition=bottom;verticalAlign=top;html=1;" vertex="1" parent="1">
          <mxGeometry x="50" y="40" width="30" height="60" as="geometry" />
        </mxCell>
        <mxCell id="H_3hlT7ZZL6J6j2Pgvtv-20" style="edgeStyle=orthogonalEdgeStyle;rounded=0;orthogonalLoop=1;jettySize=auto;html=1;exitX=0.5;exitY=0.5;exitDx=0;exitDy=0;exitPerimeter=0;entryX=0;entryY=0.5;entryDx=0;entryDy=0;" edge="1" parent="1" source="H_3hlT7ZZL6J6j2Pgvtv-3" target="H_3hlT7ZZL6J6j2Pgvtv-18">
          <mxGeometry relative="1" as="geometry" />
        </mxCell>
        <mxCell id="H_3hlT7ZZL6J6j2Pgvtv-21" style="edgeStyle=orthogonalEdgeStyle;rounded=0;orthogonalLoop=1;jettySize=auto;html=1;exitX=0.5;exitY=0.5;exitDx=0;exitDy=0;exitPerimeter=0;entryX=0;entryY=0.5;entryDx=0;entryDy=0;" edge="1" parent="1" source="H_3hlT7ZZL6J6j2Pgvtv-3" target="H_3hlT7ZZL6J6j2Pgvtv-19">
          <mxGeometry relative="1" as="geometry" />
        </mxCell>
        <mxCell id="H_3hlT7ZZL6J6j2Pgvtv-26" style="edgeStyle=orthogonalEdgeStyle;rounded=0;orthogonalLoop=1;jettySize=auto;html=1;exitX=0.5;exitY=0.5;exitDx=0;exitDy=0;exitPerimeter=0;entryX=0;entryY=0.5;entryDx=0;entryDy=0;" edge="1" parent="1" source="H_3hlT7ZZL6J6j2Pgvtv-3" target="H_3hlT7ZZL6J6j2Pgvtv-25">
          <mxGeometry relative="1" as="geometry">
            <Array as="points">
              <mxPoint x="100" y="350" />
              <mxPoint x="100" y="265" />
            </Array>
          </mxGeometry>
        </mxCell>
        <mxCell id="H_3hlT7ZZL6J6j2Pgvtv-3" value="System" style="shape=umlActor;verticalLabelPosition=bottom;verticalAlign=top;html=1;" vertex="1" parent="1">
          <mxGeometry x="50" y="320" width="30" height="60" as="geometry" />
        </mxCell>
        <mxCell id="H_3hlT7ZZL6J6j2Pgvtv-6" value="Accept shipment" style="ellipse;whiteSpace=wrap;html=1;" vertex="1" parent="1">
          <mxGeometry x="140" y="10" width="110" height="40" as="geometry" />
        </mxCell>
        <mxCell id="H_3hlT7ZZL6J6j2Pgvtv-7" value="Check capacity" style="ellipse;whiteSpace=wrap;html=1;" vertex="1" parent="1">
          <mxGeometry x="140" y="110" width="110" height="40" as="geometry" />
        </mxCell>
        <mxCell id="H_3hlT7ZZL6J6j2Pgvtv-8" value="Store chemicals" style="ellipse;whiteSpace=wrap;html=1;" vertex="1" parent="1">
          <mxGeometry x="280" y="80" width="110" height="40" as="geometry" />
        </mxCell>
        <mxCell id="H_3hlT7ZZL6J6j2Pgvtv-9" value="Dispatch chemicals" style="ellipse;whiteSpace=wrap;html=1;" vertex="1" parent="1">
          <mxGeometry x="280" y="40" width="110" height="40" as="geometry" />
        </mxCell>
        <mxCell id="H_3hlT7ZZL6J6j2Pgvtv-15" value="Manage&amp;nbsp;&lt;div&gt;compliance&amp;nbsp;&lt;/div&gt;&lt;div&gt;rules&lt;/div&gt;" style="ellipse;whiteSpace=wrap;html=1;" vertex="1" parent="1">
          <mxGeometry x="140" y="165" width="120" height="50" as="geometry" />
        </mxCell>
        <mxCell id="H_3hlT7ZZL6J6j2Pgvtv-23" style="edgeStyle=orthogonalEdgeStyle;rounded=0;orthogonalLoop=1;jettySize=auto;html=1;exitX=1;exitY=0.5;exitDx=0;exitDy=0;entryX=0;entryY=0.5;entryDx=0;entryDy=0;" edge="1" parent="1" source="H_3hlT7ZZL6J6j2Pgvtv-18" target="H_3hlT7ZZL6J6j2Pgvtv-22">
          <mxGeometry relative="1" as="geometry" />
        </mxCell>
        <mxCell id="H_3hlT7ZZL6J6j2Pgvtv-18" value="Trigger fire alert" style="ellipse;whiteSpace=wrap;html=1;" vertex="1" parent="1">
          <mxGeometry x="150" y="300" width="110" height="40" as="geometry" />
        </mxCell>
        <mxCell id="H_3hlT7ZZL6J6j2Pgvtv-19" value="Manage&lt;div&gt;compliance rules&lt;/div&gt;" style="ellipse;whiteSpace=wrap;html=1;" vertex="1" parent="1">
          <mxGeometry x="150" y="350" width="110" height="40" as="geometry" />
        </mxCell>
        <mxCell id="H_3hlT7ZZL6J6j2Pgvtv-22" value="Up to date inventory" style="ellipse;whiteSpace=wrap;html=1;" vertex="1" parent="1">
          <mxGeometry x="300" y="300" width="110" height="40" as="geometry" />
        </mxCell>
        <mxCell id="H_3hlT7ZZL6J6j2Pgvtv-25" value="Provide&lt;div&gt;audit&amp;nbsp;&lt;/div&gt;&lt;div&gt;reports&lt;/div&gt;" style="ellipse;whiteSpace=wrap;html=1;" vertex="1" parent="1">
          <mxGeometry x="155" y="240" width="105" height="50" as="geometry" />
        </mxCell>
      </root>
    </mxGraphModel>
  </diagram>
</mxfile>
